<?xml version="1.0" encoding="us-ascii" standalone="no"?><svg xmlns="http://www.w3.org/2000/svg" xmlns:xlink="http://www.w3.org/1999/xlink" contentStyleType="text/css" height="2084px" preserveAspectRatio="none" style="width:1380px;height:2084px;background:#FFFFFF;" version="1.1" viewBox="0 0 1380 2084" width="1380px" zoomAndPan="magnify"><defs/><g><text fill="#52667A" font-family="Helvetica" font-size="56" font-weight="bold" lengthAdjust="spacing" textLength="180" x="572" y="111.9805">Order</text><ellipse cx="796" cy="253.1875" fill="#181818" rx="40" ry="40" style="stroke:none;stroke-width:4.0;"/><g id="01891c18279d72159abb9073bc65e94b"><rect fill="#F9FAFB" height="253.125" rx="50" ry="50" style="stroke:#D1D9E0;stroke-width:2.0;" width="240" x="676" y="457.1875"/><line style="stroke:#D1D9E0;stroke-width:2.0;" x1="676" x2="916" y1="583.75" y2="583.75"/><text fill="#52667A" font-family="Helvetica" font-size="40" lengthAdjust="spacing" textLength="120" x="736" y="534.3164">Open</text><text fill="#52667A" font-family="Helvetica" font-size="40" lengthAdjust="spacing" textLength="112" x="716" y="660.8789">open</text></g><g id="01891c18279d72159abb9073bd182231"><rect fill="#E7F9E9" height="253.125" rx="50" ry="50" style="stroke:#C3F1C8;stroke-width:2.0;" width="356" x="82" y="1473.1875"/><line style="stroke:#C3F1C8;stroke-width:2.0;" x1="82" x2="438" y1="1599.75" y2="1599.75"/><text fill="#52667A" font-family="Helvetica" font-size="40" lengthAdjust="spacing" textLength="116" x="202" y="1550.3164">Done</text><text fill="#52667A" font-family="Helvetica" font-size="40" lengthAdjust="spacing" textLength="236" x="122" y="1676.8789">completed</text></g><ellipse cx="608" cy="2021.1875" fill="none" rx="40" ry="40" style="stroke:#181818;stroke-width:4.0;"/><ellipse cx="610" cy="2023.1875" fill="#181818" rx="24" ry="24" style="stroke:none;stroke-width:4.0;"/><g id="01891c18279d72159abb9073be0333de"><rect fill="#E3F3FF" height="253.125" rx="50" ry="50" style="stroke:#BAE2FF;stroke-width:2.0;" width="364" x="318" y="965.1875"/><line style="stroke:#BAE2FF;stroke-width:2.0;" x1="318" x2="682" y1="1091.75" y2="1091.75"/><text fill="#189EFF" font-family="Helvetica" font-size="40" lengthAdjust="spacing" textLength="232" x="384" y="1042.3164">In Progress</text><text fill="#189EFF" font-family="Helvetica" font-size="40" lengthAdjust="spacing" textLength="244" x="358" y="1168.8789">in_progress</text></g><g id="01891c18279d72159abb9073be78f405"><rect fill="#FBE5EA" height="253.125" rx="50" ry="50" style="stroke:#F5BFC9;stroke-width:2.0;" width="340" x="714" y="1473.1875"/><line style="stroke:#F5BFC9;stroke-width:2.0;" x1="714" x2="1054" y1="1599.75" y2="1599.75"/><text fill="#DE294C" font-family="Helvetica" font-size="40" lengthAdjust="spacing" textLength="220" x="774" y="1550.3164">Cancelled</text><text fill="#DE294C" font-family="Helvetica" font-size="40" lengthAdjust="spacing" textLength="212" x="754" y="1676.8789">cancelled</text></g><!--link *start* to 01891c18279d72159abb9073bc65e94b--><g id="link_*start*_01891c18279d72159abb9073bc65e94b"><path d="M796,294.1235 C796,329.1235 796,383.9755 796,436.2515 " fill="none" id="*start*-to-01891c18279d72159abb9073bc65e94b" style="stroke:#52667A;stroke-width:4.0;"/><polygon fill="#52667A" points="796,456.8795,812,420.8795,796,436.8795,780,420.8795,796,456.8795" style="stroke:#52667A;stroke-width:4.0;"/></g><!--link 01891c18279d72159abb9073bd182231 to *end*--><g id="link_01891c18279d72159abb9073bd182231_*end*"><path d="M362.3028,1726.1159 C430.616,1808.2035 508,1901.1875 508,1901.1875 C508,1901.1875 542.12,1940.7643 570.496,1973.6839 " fill="none" id="01891c18279d72159abb9073bd182231-to-*end*" style="stroke:#52667A;stroke-width:4.0;"/><polygon fill="#52667A" points="583.792,1989.1071,572.4051,1951.3932,570.7334,1973.9588,548.1678,1972.287,583.792,1989.1071" style="stroke:#52667A;stroke-width:4.0;"/><text fill="#52667A" font-family="Helvetica" font-size="44" lengthAdjust="spacing" textLength="96" x="532" y="1870.0293">final</text></g><!--link 01891c18279d72159abb9073be78f405 to *end*--><g id="link_01891c18279d72159abb9073be78f405_*end*"><path d="M801.94,1726.2803 C747.792,1807.4983 679.816,1909.4615 640.404,1968.5831 " fill="none" id="01891c18279d72159abb9073be78f405-to-*end*" style="stroke:#52667A;stroke-width:4.0;"/><polygon fill="#52667A" points="629.136,1985.4851,662.4188,1964.4078,640.2307,1968.8445,635.7939,1946.6564,629.136,1985.4851" style="stroke:#52667A;stroke-width:4.0;"/><text fill="#52667A" font-family="Helvetica" font-size="44" lengthAdjust="spacing" textLength="96" x="772" y="1870.0293">final</text></g><!--link 01891c18279d72159abb9073bc65e94b to 01891c18279d72159abb9073be0333de--><g id="link_01891c18279d72159abb9073bc65e94b_01891c18279d72159abb9073be0333de"><path d="M711.332,709.3515 C681.848,751.8915 656,789.1875 656,789.1875 C656,789.1875 614.632,868.2115 574.5,944.8715 " fill="none" id="01891c18279d72159abb9073bc65e94b-to-01891c18279d72159abb9073be0333de" style="stroke:#52667A;stroke-width:4.0;"/><polygon fill="#52667A" points="564.352,964.2595,595.2307,939.7952,573.633,946.5433,566.8848,924.9456,564.352,964.2595" style="stroke:#52667A;stroke-width:4.0;"/><text fill="#52667A" font-family="Helvetica" font-size="44" lengthAdjust="spacing" textLength="176" x="680" y="854.0293">process</text></g><!--link 01891c18279d72159abb9073bc65e94b to 01891c18279d72159abb9073be78f405--><g id="link_01891c18279d72159abb9073bc65e94b_01891c18279d72159abb9073be78f405"><path d="M861.316,709.3515 C884.06,751.8915 904,789.1875 904,789.1875 C904,789.1875 904,1393.1875 904,1393.1875 C904,1393.1875 901.468,1418.7635 898.204,1451.7155 " fill="none" id="01891c18279d72159abb9073bc65e94b-to-01891c18279d72159abb9073be78f405" style="stroke:#52667A;stroke-width:4.0;"/><polygon fill="#52667A" points="896.096,1473.0235,915.5666,1438.7759,898.0674,1453.1209,883.7224,1435.6217,896.096,1473.0235" style="stroke:#52667A;stroke-width:4.0;"/><text fill="#52667A" font-family="Helvetica" font-size="44" lengthAdjust="spacing" textLength="148" x="928" y="1108.0293">cancel</text></g><!--link 01891c18279d72159abb9073be78f405 to 01891c18279d72159abb9073bc65e94b--><g id="link_01891c18279d72159abb9073be78f405_01891c18279d72159abb9073bc65e94b"><path d="M971.088,1473.0235 C1001.412,1430.4835 1028,1393.1875 1028,1393.1875 C1028,1393.1875 1140,1217.1875 1140,1217.1875 C1140,1217.1875 1140,965.1875 1140,965.1875 C1140,965.1875 1028,789.1875 1028,789.1875 C1028,789.1875 982.572,749.6355 931.92,705.5315 " fill="none" id="01891c18279d72159abb9073be78f405-to-01891c18279d72159abb9073bc65e94b" style="stroke:#52667A;stroke-width:4.0;"/><polygon fill="#52667A" points="916.076,691.7395,932.7249,727.4441,931.1615,704.8707,953.7348,703.3073,916.076,691.7395" style="stroke:#52667A;stroke-width:4.0;"/><text fill="#52667A" font-family="Helvetica" font-size="44" lengthAdjust="spacing" textLength="164" x="1164" y="1108.0293">reopen</text></g><!--link 01891c18279d72159abb9073be0333de to 01891c18279d72159abb9073be78f405--><g id="link_01891c18279d72159abb9073be0333de_01891c18279d72159abb9073be78f405"><path d="M575.904,1218.1155 C626.588,1300.2035 684,1393.1875 684,1393.1875 C684,1393.1875 712.272,1421.7435 747.556,1457.3795 " fill="none" id="01891c18279d72159abb9073be0333de-to-01891c18279d72159abb9073be78f405" style="stroke:#52667A;stroke-width:4.0;"/><polygon fill="#52667A" points="763.044,1473.0235,749.0878,1436.183,748.9735,1458.8101,726.3464,1458.6958,763.044,1473.0235" style="stroke:#52667A;stroke-width:4.0;"/><text fill="#52667A" font-family="Helvetica" font-size="44" lengthAdjust="spacing" textLength="148" x="708" y="1362.0293">cancel</text></g><!--link 01891c18279d72159abb9073be0333de to 01891c18279d72159abb9073bd182231--><g id="link_01891c18279d72159abb9073be0333de_01891c18279d72159abb9073bd182231"><path d="M342.7588,1217.3515 C288.004,1259.8915 240,1297.1875 240,1297.1875 C240,1297.1875 240,1393.1875 240,1393.1875 C240,1393.1875 242.5324,1418.7635 245.7948,1451.7155 " fill="none" id="01891c18279d72159abb9073be0333de-to-01891c18279d72159abb9073bd182231" style="stroke:#52667A;stroke-width:4.0;"/><polygon fill="#52667A" points="247.9044,1473.0235,260.278,1435.6217,245.933,1453.1209,228.4338,1438.7759,247.9044,1473.0235" style="stroke:#52667A;stroke-width:4.0;"/><text fill="#52667A" font-family="Helvetica" font-size="44" lengthAdjust="spacing" textLength="216" x="264" y="1362.0293">complete</text></g><!--link 01891c18279d72159abb9073bd182231 to 01891c18279d72159abb9073bc65e94b--><g id="link_01891c18279d72159abb9073bd182231_01891c18279d72159abb9073bc65e94b"><path d="M183.3776,1472.4635 C114.4672,1362.0875 24,1217.1875 24,1217.1875 C24,1217.1875 24,965.1875 24,965.1875 C24,965.1875 434.828,764.0315 657.092,655.2035 " fill="none" id="01891c18279d72159abb9073bd182231-to-01891c18279d72159abb9073bc65e94b" style="stroke:#52667A;stroke-width:4.0;"/><polygon fill="#52667A" points="675.376,646.2515,636.0077,647.7134,657.4138,655.0469,650.0803,676.4529,675.376,646.2515" style="stroke:#52667A;stroke-width:4.0;"/><text fill="#52667A" font-family="Helvetica" font-size="44" lengthAdjust="spacing" textLength="164" x="48" y="1108.0293">reopen</text></g><!--SRC=[nLHTQzim57tthxYq3u51mHzn78TIQBk6zQ5hMGPzA6N8qbKYgaYUBA_BnlxxvDHEd3XDyZ3OYy7tddjyZkwH2qeaGkZxFhmAPcUUDnCC0UUvNG33WXgHMw6LPtKELaEchTLpOC8WNTQzuaMed1ZYYiX9AUrN_6alfPYgEIeBr3tGj51IABIB727NSb6zj7fAkqzY3ds_LSm9Oq9D8MxL354l7U24pF5Qag9uh9o0DMMRUp8ZJBzMH9p8ejsv8lHbQdIfsBMMsi3fU3pksZeEDTRAVdOwu1FA7sW59RinDKSS3WR9Ev29-8KG1ClcGwTf5svlkIH2jQOB_5wYedY7HK6ckDn2TmE59HRXjmTmQQqHMMbnBIcJxjIsEczA_4wvfG6wfyXJJdZMxPoVJqfAdSAB2pZ5XAUOxWBT6ADD1U4PnaXsGMuLrqkIY4USxq8y4gFSoYjGC4pn3QGDGrEBP05BqT-iRWYa4G_eS1km5XTddARRxKPOHZ3S_kQ6g1MWcubMhH5KJKG9y_k3pUvA3SCmxTFDPgDbvR_LQocfqWpGksdMzmLPZTsAyrjn7OdUEWgPbjLGRsA9gTtS8HFb_AeArH_Fiy8ws7rr5fxtzE4Ppfvgkyzd5-0xYG4DXc6IiYGCufHaMUedKKO7CQRzpFrhbiazkSzHdG0f3ax02BJ3DdCVjSBzSypLmYXe9s04LCzpYTOToA6vJJ-LmH5meOXi5DmgU31wQXprVY7eHr74SBM-4GZrBQz76xPhukwwbCWES2L3tlVZTKwSfMRIEpJrlYNmtAxXy0wEst5jsB4xbzNH_rFosajZV3zt8-N_SpUnMcVm0FkkdHrnIGmkhybUxfqHFvhxBm00]--></g></svg>